<?xml version="1.0" standalone="no"?>
<!DOCTYPE svg PUBLIC "-//W3C//DTD SVG 20010904//EN"
 "http://www.w3.org/TR/2001/REC-SVG-20010904/DTD/svg10.dtd">
<svg version="1.0" xmlns="http://www.w3.org/2000/svg"
 width="512.000000pt" height="512.000000pt" viewBox="0 0 512.000000 512.000000"
 preserveAspectRatio="xMidYMid meet">
<metadata>
Created by potrace 1.14, written by Peter Selinger 2001-2017
</metadata>
<g transform="translate(0.000000,512.000000) scale(0.100000,-0.100000)"
fill="#000000" stroke="none">
<path d="M2240 5104 c-845 -108 -1582 -629 -1967 -1389 -187 -371 -273 -733
-273 -1155 0 -422 86 -784 273 -1155 387 -764 1127 -1285 1977 -1390 161 -20
459 -20 620 0 547 68 1053 307 1458 689 310 293 564 706 688 1119 71 237 104
470 104 737 0 422 -86 784 -273 1155 -387 764 -1127 1285 -1977 1390 -153 18
-482 18 -630 -1z m620 -518 c516 -120 902 -509 1001 -1011 8 -41 14 -128 13
-210 0 -122 -4 -151 -28 -230 -39 -130 -114 -279 -265 -530 -219 -363 -266
-477 -281 -681 -6 -80 -16 -140 -30 -177 -20 -52 -94 -166 -119 -181 -6 -4
-11 -36 -11 -72 0 -63 -1 -66 -32 -82 -17 -9 -42 -27 -55 -39 -30 -28 -20 -51
34 -84 68 -41 69 -59 6 -99 -78 -50 -79 -68 -5 -115 57 -37 61 -61 12 -91 -47
-30 -70 -52 -70 -66 0 -6 18 -28 40 -48 22 -20 40 -46 40 -56 0 -11 -41 -60
-95 -114 -53 -52 -112 -119 -132 -147 l-36 -53 -287 0 -287 0 -36 53 c-20 28
-79 95 -132 147 -54 54 -95 103 -95 114 0 10 18 36 40 56 22 20 40 42 40 48 0
14 -23 36 -70 66 -49 30 -45 54 12 91 74 47 73 65 -5 115 -63 40 -62 58 6 99
54 33 64 56 34 84 -13 12 -38 30 -55 39 -31 16 -32 19 -32 82 0 36 -5 68 -11
72 -25 15 -99 129 -119 181 -14 37 -24 97 -30 177 -15 204 -62 318 -281 681
-151 251 -226 400 -265 530 -24 79 -28 108 -28 230 -1 153 11 230 55 367 139
428 518 762 975 857 138 29 150 30 324 26 119 -3 179 -10 260 -29z"/>
<path d="M2355 4425 c-393 -63 -718 -292 -880 -620 -81 -164 -99 -246 -100
-435 0 -144 2 -161 28 -235 41 -116 109 -255 229 -465 225 -395 274 -515 289
-719 11 -144 26 -201 70 -254 l30 -37 539 0 539 0 30 37 c43 52 60 110 71 248
5 66 16 145 24 175 34 123 110 281 273 568 122 214 179 331 219 452 26 79 28
96 28 235 -1 133 -4 160 -28 240 -124 415 -451 704 -898 795 -135 28 -343 34
-463 15z"/>
</g>
</svg>
